<mxfile host="app.diagrams.net" modified="2023-10-14T17:24:14.538Z" agent="Mozilla/5.0 (Windows NT 10.0; Win64; x64) AppleWebKit/537.36 (KHTML, like Gecko) Chrome/118.0.0.0 Safari/537.36" etag="5FGXPvonezSzEwQwxY5r" version="21.7.5" type="device">
  <diagram name="PÃ¡gina-1" id="V-zbgPGnZWEujVW_fjf2">
    <mxGraphModel dx="989" dy="517" grid="1" gridSize="10" guides="1" tooltips="1" connect="1" arrows="1" fold="1" page="1" pageScale="1" pageWidth="827" pageHeight="1169" math="0" shadow="0">
      <root>
        <mxCell id="0" />
        <mxCell id="1" parent="0" />
        <mxCell id="3jC16WT6yrERQ1BB2bJJ-1" value="" style="rounded=0;whiteSpace=wrap;html=1;" vertex="1" parent="1">
          <mxGeometry x="180" y="40" width="620" height="280" as="geometry" />
        </mxCell>
        <mxCell id="3jC16WT6yrERQ1BB2bJJ-12" style="edgeStyle=orthogonalEdgeStyle;rounded=0;orthogonalLoop=1;jettySize=auto;html=1;" edge="1" parent="1" source="3jC16WT6yrERQ1BB2bJJ-2" target="3jC16WT6yrERQ1BB2bJJ-9">
          <mxGeometry relative="1" as="geometry" />
        </mxCell>
        <mxCell id="3jC16WT6yrERQ1BB2bJJ-2" value="Login&lt;br&gt;Controller" style="ellipse;shape=umlControl;whiteSpace=wrap;html=1;" vertex="1" parent="1">
          <mxGeometry x="330" y="80" width="60" height="70" as="geometry" />
        </mxCell>
        <mxCell id="3jC16WT6yrERQ1BB2bJJ-3" value="User" style="ellipse;shape=umlEntity;whiteSpace=wrap;html=1;" vertex="1" parent="1">
          <mxGeometry x="720" y="160" width="50" height="40" as="geometry" />
        </mxCell>
        <mxCell id="3jC16WT6yrERQ1BB2bJJ-13" style="edgeStyle=orthogonalEdgeStyle;rounded=0;orthogonalLoop=1;jettySize=auto;html=1;entryX=-0.006;entryY=0.565;entryDx=0;entryDy=0;entryPerimeter=0;" edge="1" parent="1" source="3jC16WT6yrERQ1BB2bJJ-4" target="3jC16WT6yrERQ1BB2bJJ-2">
          <mxGeometry relative="1" as="geometry" />
        </mxCell>
        <mxCell id="3jC16WT6yrERQ1BB2bJJ-14" style="edgeStyle=orthogonalEdgeStyle;rounded=0;orthogonalLoop=1;jettySize=auto;html=1;entryX=0.017;entryY=0.609;entryDx=0;entryDy=0;entryPerimeter=0;" edge="1" parent="1" source="3jC16WT6yrERQ1BB2bJJ-4" target="3jC16WT6yrERQ1BB2bJJ-5">
          <mxGeometry relative="1" as="geometry" />
        </mxCell>
        <mxCell id="3jC16WT6yrERQ1BB2bJJ-4" value="Frontend" style="shape=umlBoundary;whiteSpace=wrap;html=1;" vertex="1" parent="1">
          <mxGeometry x="190" y="150" width="70" height="60" as="geometry" />
        </mxCell>
        <mxCell id="3jC16WT6yrERQ1BB2bJJ-15" style="edgeStyle=orthogonalEdgeStyle;rounded=0;orthogonalLoop=1;jettySize=auto;html=1;" edge="1" parent="1" source="3jC16WT6yrERQ1BB2bJJ-5" target="3jC16WT6yrERQ1BB2bJJ-10">
          <mxGeometry relative="1" as="geometry" />
        </mxCell>
        <mxCell id="3jC16WT6yrERQ1BB2bJJ-5" value="Provider&lt;br&gt;Controller" style="ellipse;shape=umlControl;whiteSpace=wrap;html=1;" vertex="1" parent="1">
          <mxGeometry x="330" y="210" width="60" height="70" as="geometry" />
        </mxCell>
        <mxCell id="3jC16WT6yrERQ1BB2bJJ-11" style="edgeStyle=orthogonalEdgeStyle;rounded=0;orthogonalLoop=1;jettySize=auto;html=1;curved=0;entryX=0;entryY=0.5;entryDx=0;entryDy=0;" edge="1" parent="1" source="3jC16WT6yrERQ1BB2bJJ-9" target="3jC16WT6yrERQ1BB2bJJ-3">
          <mxGeometry relative="1" as="geometry" />
        </mxCell>
        <mxCell id="3jC16WT6yrERQ1BB2bJJ-9" value="Login Service" style="html=1;points=[[0,0,0,0,5],[0,1,0,0,-5],[1,0,0,0,5],[1,1,0,0,-5]];perimeter=orthogonalPerimeter;outlineConnect=0;targetShapes=umlLifeline;portConstraint=eastwest;newEdgeStyle={&quot;curved&quot;:0,&quot;rounded&quot;:0};" vertex="1" parent="1">
          <mxGeometry x="440" y="92.5" width="110" height="45" as="geometry" />
        </mxCell>
        <mxCell id="3jC16WT6yrERQ1BB2bJJ-18" style="edgeStyle=orthogonalEdgeStyle;rounded=0;orthogonalLoop=1;jettySize=auto;html=1;curved=0;entryX=0;entryY=0.5;entryDx=0;entryDy=0;" edge="1" parent="1" source="3jC16WT6yrERQ1BB2bJJ-10" target="3jC16WT6yrERQ1BB2bJJ-3">
          <mxGeometry relative="1" as="geometry" />
        </mxCell>
        <mxCell id="3jC16WT6yrERQ1BB2bJJ-10" value="Provider Service" style="html=1;points=[[0,0,0,0,5],[0,1,0,0,-5],[1,0,0,0,5],[1,1,0,0,-5]];perimeter=orthogonalPerimeter;outlineConnect=0;targetShapes=umlLifeline;portConstraint=eastwest;newEdgeStyle={&quot;curved&quot;:0,&quot;rounded&quot;:0};" vertex="1" parent="1">
          <mxGeometry x="440" y="222.5" width="110" height="45" as="geometry" />
        </mxCell>
      </root>
    </mxGraphModel>
  </diagram>
</mxfile>
